<?xml version="1.0" encoding="UTF-8" standalone="no"?>
<svg
   fill="#ffffff"
   viewBox="0 0 50 45"
   width="50"
   height="45"
   version="1.1"
   id="svg11"
   sodipodi:docname="upwork.svg"
   inkscape:version="1.1 (c4e8f9e, 2021-05-24)"
   xmlns:inkscape="http://www.inkscape.org/namespaces/inkscape"
   xmlns:sodipodi="http://sodipodi.sourceforge.net/DTD/sodipodi-0.dtd"
   xmlns="http://www.w3.org/2000/svg"
   xmlns:svg="http://www.w3.org/2000/svg">
  <defs
     id="defs15" />
  <sodipodi:namedview
     id="namedview13"
     pagecolor="#ffffff"
     bordercolor="#666666"
     borderopacity="1.0"
     inkscape:pageshadow="2"
     inkscape:pageopacity="0.0"
     inkscape:pagecheckerboard="0"
     showgrid="false"
     height="51px"
     inkscape:zoom="12.5"
     inkscape:cx="15.88"
     inkscape:cy="25"
     inkscape:window-width="1440"
     inkscape:window-height="847"
     inkscape:window-x="0"
     inkscape:window-y="25"
     inkscape:window-maximized="1"
     inkscape:current-layer="svg11" />
  <path
     d="M 1,9 C 0.448,9 0,9.448 0,10 v 14.115234 c 0,6.161 4.6829844,11.516235 10.833984,11.865235 5.897,0.334 10.913891,-3.804078 11.962891,-9.330078 0.57,0.77 1.149375,1.485578 1.734375,2.142578 l -3.529297,14.978515 c -0.069,0.298 4.53e-4,0.60861 0.189453,0.84961 0.191,0.238 0.479157,0.378906 0.785156,0.378906 h 5.119141 c 0.464,0 0.863703,-0.312672 0.970703,-0.763672 0.621,-2.621 1.594563,-6.728172 2.476563,-10.451172 L 31.453125,34.3125 C 33.618125,35.4335 35.815,36 38,36 c 7.192,0 12.926,-6.359 11.875,-13.75 -0.696,-4.896 -4.460922,-8.931656 -9.294922,-9.972656 -5.629,-1.213 -11.054719,1.671797 -13.386719,6.466797 0,0 -0.258797,0.574437 -0.466797,1.148437 -1.649999,-2.846 -2.618953,-5.7985 -3.126953,-7.9375 -0.185,-0.78 -0.46214,-2.192203 -0.49414,-2.283203 C 22.966469,9.268875 22.589109,9 22.162109,9 H 17 c -0.552,0 -1,0.448 -1,1 v 14.300781 c 0,2.349 -1.712781,4.449735 -4.050781,4.677735 C 9.2672187,29.240516 7,27.13 7,24.5 V 10 C 7,9.448 6.552,9 6,9 Z m 37,10 c 2.757,0 5,2.243 5,5 0,2.757 -2.243,5 -5,5 -2.225,0 -4.286469,-1.341719 -5.730469,-2.511719 0.527,-2.225 0.880719,-3.715234 0.886719,-3.740234 C 33.72425,20.541047 35.717,19 38,19 Z"
     id="path9" />
</svg>
